<?xml version="1.0" encoding="UTF-8"?>
<svg width="100%" viewBox="0 0 980 260" xmlns="http://www.w3.org/2000/svg" role="img" aria-label="Synthetic data generation pipeline">
    <rect x="35" y="50" width="150" height="55" rx="8" fill="#eaf2fb" stroke="#1f4e79"/>
    <text x="110" y="82" text-anchor="middle" font-family="Times New Roman" font-size="16">Context Sampler</text>

    <rect x="220" y="50" width="150" height="55" rx="8" fill="#e7f5e7" stroke="#2d6a2d"/>
    <text x="295" y="82" text-anchor="middle" font-family="Times New Roman" font-size="16">Action Sampler</text>

    <rect x="405" y="50" width="160" height="55" rx="8" fill="#f5efe2" stroke="#6b4e16"/>
    <text x="485" y="82" text-anchor="middle" font-family="Times New Roman" font-size="16">Latent Causal Model</text>

    <rect x="600" y="50" width="150" height="55" rx="8" fill="#f4e7f7" stroke="#7a2b8a"/>
    <text x="675" y="82" text-anchor="middle" font-family="Times New Roman" font-size="16">Noise / Shift</text>

    <rect x="785" y="50" width="160" height="55" rx="8" fill="#eef0f5" stroke="#444"/>
    <text x="865" y="82" text-anchor="middle" font-family="Times New Roman" font-size="16">Flourishing Labels</text>

    <line x1="185" y1="77" x2="220" y2="77" stroke="#333" stroke-width="2"/>
    <polygon points="220,77 210,72 210,82" fill="#333"/>
    <line x1="370" y1="77" x2="405" y2="77" stroke="#333" stroke-width="2"/>
    <polygon points="405,77 395,72 395,82" fill="#333"/>
    <line x1="565" y1="77" x2="600" y2="77" stroke="#333" stroke-width="2"/>
    <polygon points="600,77 590,72 590,82" fill="#333"/>
    <line x1="750" y1="77" x2="785" y2="77" stroke="#333" stroke-width="2"/>
    <polygon points="785,77 775,72 775,82" fill="#333"/>

    <text x="490" y="175" text-anchor="middle" font-family="Times New Roman" font-size="16">Synthetic Benchmark Outputs</text>
    <text x="490" y="200" text-anchor="middle" font-family="Times New Roman" font-size="14">Prediction targets, harm labels, equity labels, delayed outcomes</text>
  </svg>